<?xml version="1.0" encoding="UTF-8" standalone="no"?>
<svg
   xmlns:dc="http://purl.org/dc/elements/1.1/"
   xmlns:cc="http://creativecommons.org/ns#"
   xmlns:rdf="http://www.w3.org/1999/02/22-rdf-syntax-ns#"
   xmlns:svg="http://www.w3.org/2000/svg"
   xmlns="http://www.w3.org/2000/svg"
   viewBox="0 0 1064.1067 258.26666"
   height="258.26666"
   width="1064.1067"
   xml:space="preserve"
   id="svg2"
   version="1.1"><metadata
     id="metadata8"><rdf:RDF><cc:Work
         rdf:about=""><dc:format>image/svg+xml</dc:format><dc:type
           rdf:resource="http://purl.org/dc/dcmitype/StillImage" /></cc:Work></rdf:RDF></metadata><defs
     id="defs6" /><g
     transform="matrix(1.3333333,0,0,-1.3333333,0,258.26667)"
     id="g10"><g
       transform="scale(0.1)"
       id="g12"><path
         id="path14"
         style="fill:#ffffff;fill-opacity:1;fill-rule:nonzero;stroke:none"
         d="m 2956.1,399.551 h -63.02 V 512.25 h 63.35 c 35.17,0 60.71,-23.699 60.71,-56.359 0,-32.641 -25.68,-56.34 -61.04,-56.34 m -2.33,138.738 H 2863.7 V 319.48 h 29.38 v 54.032 h 60.36 c 56.27,0 94.07,33.109 94.07,82.379 0,49.289 -37.67,82.398 -93.74,82.398" /><path
         id="path16"
         style="fill:#ffffff;fill-opacity:1;fill-rule:nonzero;stroke:none"
         d="m 3197.8,446.191 c -29.85,7.539 -52.69,14.969 -52.69,35.707 0,23.981 28.31,32.704 47.36,32.704 23.52,0 44,-6.661 60.86,-19.762 l 1.27,-0.981 12.3,22.731 -0.88,0.73 c -20.45,16.371 -44.51,24.321 -73.55,24.321 -37.13,0 -77.07,-18.7 -77.07,-59.743 0,-18.589 8.12,-32.82 24.8,-43.527 15.14,-9.691 35.61,-15.32 53.6,-19.812 26.89,-6.789 54.68,-13.809 54.68,-37.719 0,-25.879 -29.03,-37.68 -56.01,-37.68 -28.87,0 -52.56,9.488 -72.44,28.988 l -1.25,1.223 -12.71,-22.41 0.68,-0.723 c 21.28,-22.629 50.01,-34.097 85.39,-34.097 22.57,0 43.55,5.41 59.08,15.257 18.31,11.571 27.98,28.684 27.98,49.442 0,41.539 -42.02,55.512 -81.4,65.351" /><path
         id="path18"
         style="fill:#ffffff;fill-opacity:1;fill-rule:nonzero;stroke:none"
         d="m 3351.09,319.48 h 29.38 v 218.809 h -29.38 V 319.48" /><path
         id="path20"
         style="fill:#ffffff;fill-opacity:1;fill-rule:nonzero;stroke:none"
         d="m 3629.21,369.449 c -15.68,-16.699 -38.42,-26.289 -62.37,-26.289 -46.95,0 -83.71,37.809 -83.71,86.059 0,47.871 37.5,85.39 85.37,85.39 21,0 39.89,-7.089 56.14,-21.039 l 1.03,-0.871 17.46,20.012 -1.02,0.879 c -20.15,18.101 -46.9,28.051 -75.27,28.051 -63.97,0 -114.08,-49.379 -114.08,-112.422 0,-63.41 50.11,-113.078 114.08,-113.078 30.9,0 59.65,11.75 81,33.058 l 0.89,0.922 -18.51,20.399 -1.01,-1.071" /><path
         id="path22"
         style="fill:#ffffff;fill-opacity:1;fill-rule:nonzero;stroke:none"
         d="m 3814.53,343.16 c -46.94,0 -83.71,37.66 -83.71,85.731 0,48.05 36.77,85.711 83.71,85.711 46.75,0 83.36,-37.661 83.36,-85.711 0,-48.071 -36.61,-85.731 -83.36,-85.731 m 0,198.481 c -63.97,0 -114.09,-49.52 -114.09,-112.75 0,-63.219 50.12,-112.75 114.09,-112.75 63.78,0 113.75,49.531 113.75,112.75 0,63.23 -49.97,112.75 -113.75,112.75" /><path
         id="path24"
         style="fill:#ffffff;fill-opacity:1;fill-rule:nonzero;stroke:none"
         d="m 4029.85,538.289 h -29.38 V 319.48 h 165.79 v 26.04 h -136.41 v 192.769" /><path
         id="path26"
         style="fill:#ffffff;fill-opacity:1;fill-rule:nonzero;stroke:none"
         d="m 4332.56,343.16 c -46.94,0 -83.7,37.66 -83.7,85.731 0,48.05 36.76,85.711 83.7,85.711 46.75,0 83.38,-37.661 83.38,-85.711 0,-48.071 -36.63,-85.731 -83.38,-85.731 m 0,198.481 c -63.97,0 -114.07,-49.52 -114.07,-112.75 0,-63.219 50.1,-112.75 114.07,-112.75 63.77,0 113.74,49.531 113.74,112.75 0,63.23 -49.97,112.75 -113.74,112.75" /><path
         id="path28"
         style="fill:#ffffff;fill-opacity:1;fill-rule:nonzero;stroke:none"
         d="m 4642.6,419.871 h 47.02 V 376.32 c -15.73,-21.07 -39.77,-33.148 -66.02,-33.148 -46.94,0 -83.7,37.648 -83.7,85.726 0,48.051 36.76,85.711 83.7,85.711 22.9,0 41.9,-7.109 58.13,-21.687 l 1,-0.934 17.82,20.41 -1.01,0.891 c -20.97,18.563 -47.23,28.352 -75.94,28.352 -63.99,0 -114.09,-49.52 -114.09,-112.743 0,-63.218 50.1,-112.757 114.09,-112.757 39.22,0 73.64,17.968 94.52,49.3 l 0.2,0.329 v 79.46 h -75.72 v -25.359" /><path
         id="path30"
         style="fill:#ffffff;fill-opacity:1;fill-rule:nonzero;stroke:none"
         d="m 4797.22,319.48 h 29.36 v 218.809 h -29.36 V 319.48" /><path
         id="path32"
         style="fill:#ffffff;fill-opacity:1;fill-rule:nonzero;stroke:none"
         d="M 5056.17,385.859 H 4947.04 L 4985.8,468 c 5.3,11.02 10.79,24.191 14.06,32.051 0.69,1.648 1.27,3.058 1.74,4.219 0.67,-1.551 1.54,-3.59 2.5,-5.872 3.42,-8.078 8.56,-20.289 13.31,-30.398 z m -41.69,153.09 h -25.75 l -101.75,-217.57 -0.89,-1.91 h 30.31 l 20,42.031 h 130.75 l 19.63,-41.27 0.37,-0.761 h 29.97 l -102.29,218.703 -0.35,0.777" /><path
         id="path34"
         style="fill:#ffffff;fill-opacity:1;fill-rule:nonzero;stroke:none"
         d="m 3438.4,933.621 c -56.05,0 -96.79,56.055 -74.38,193.619 28.51,168.15 124.32,291.46 261.89,291.46 27.5,0 85.59,-5.11 85.59,-54.04 0,-136.52 -143.68,-431.039 -273.1,-431.039 M 1771.19,932.68 c -56.05,0 -96.79,56.054 -74.38,193.62 28.51,168.15 124.32,291.45 261.87,291.45 27.52,0 85.61,-5.1 85.61,-54.03 0,-136.52 -143.68,-431.04 -273.1,-431.04 m -796.085,0 c -56.05,0 -96.789,56.054 -74.371,193.62 28.52,168.15 124.316,291.45 261.886,291.45 27.52,0 85.61,-5.1 85.61,-54.03 0,-136.52 -143.7,-431.04 -273.125,-431.04 m 2847.475,498.25 c -12.22,-5.11 -64.2,-5.11 -64.2,-5.11 -61.14,0 -93.74,9.16 -138.58,9.16 -182.43,0 -319.99,-149.78 -351.57,-332.19 -0.69,-4.09 -1.1,-7.99 -1.66,-11.99 -19.67,-44.81 -70.78,-143.925 -110.4,-143.925 -39.74,0 -21.42,96.805 -9.19,150.825 l 41.8,179.34 c 20.38,87.64 -20.39,162.03 -123.3,162.03 -131.47,0 -215.01,-120.23 -263.94,-240.48 l 52.87,228.61 45.8,193.64 h -31.98 -72.62 c -70.75,-137.41 -313.73,-170.79 -378.92,-183.07 -119.65,-22.56 -182.56,-66.47 -182.56,-136.25 0,-154.93 334.94,-161.98 299.58,-316.926 -13.54,-59.344 -76.53,-93.895 -149.79,-89.684 -97.05,5.578 -160.13,145.77 -169.11,188.18 -19.51,-7.23 -32.85,-29.75 -39.83,-44.85 -24.23,-44.326 -57.24,-92.306 -84.82,-92.306 -39.74,0 -21.42,96.806 -9.2,150.816 l 74.41,333.23 c -12.22,-5.1 -64.22,-5.1 -64.22,-5.1 -61.12,0 -93.72,9.16 -138.56,9.16 -182.43,0 -319.99,-149.79 -351.57,-332.18 -3.21,-19.07 -4.88,-36.91 -5.35,-53.72 -0.37,0.13 -0.72,0.27 -1.09,0.4 -23.72,-44.05 -56.97,-93.364 -84.55,-93.364 -38.66,0 -20.81,94.164 -8.92,146.684 l 68.39,304.28 h 103.07 l 13.82,17.76 h -218.02 c 76.37,20.8 166.59,123.09 173.2,196.94 h -102.69 c -5.39,-60.44 -31.51,-195.53 -128.91,-196.94 h -6.05 l -9.84,-11.81 c 45.57,0 82.25,-7.93 67.38,-74.32 l -54.45,-244.57 -0.84,0.5 c -18.35,-42.8 -71.31,-147.766 -112.09,-147.766 -39.74,0 -21.4,96.806 -9.18,150.816 l 74.41,333.23 c -12.23,-5.1 -64.22,-5.1 -64.22,-5.1 -61.13,0 -93.74,9.16 -138.57,9.16 -182.434,0 -319.997,-149.79 -351.586,-332.18 -0.688,-4.18 -1.11,-8.11 -1.668,-12.18 -19.711,-44.91 -70.743,-143.746 -110.332,-143.746 -39.739,0 -21.387,96.806 -9.161,150.816 l 41.774,179.36 c 20.387,87.61 -22.41,162.03 -129.402,162.03 -135.532,0 -219.11,-120.25 -268.008,-240.5 l 53.488,230.31 -102.988,-0.38 3.199,-21.44 c -1.32,-19.45 -4.512,-32.81 -8.883,-51.81 L 166.094,888.879 h 90.691 l 48.918,204.821 c 27.512,114.14 126.352,302.64 243.551,302.64 62.18,0 95.793,-54 79.492,-126.34 l -43.832,-191.59 c -18.32,-81.508 -30.578,-192.59 48.93,-192.59 77.871,0 133.722,104.473 166.961,182.42 -10.141,-118.717 40.492,-186.502 126.41,-186.502 134.515,0 238.475,166.102 280.235,281.242 l -22.42,-84.57 c -21.38,-81.508 -30.57,-192.59 48.93,-192.59 76.53,0 133.8,103.383 167.41,181.18 -15.59,-77.566 -21.77,-170.301 50.17,-170.301 61.77,0 110.52,69.145 144.03,135.931 2.08,-96.579 50.78,-150.892 127.73,-150.892 134.51,0 238.45,166.102 280.22,281.242 l -22.41,-84.57 c -21.38,-81.508 -30.58,-192.59 48.92,-192.59 58.91,0 106.34,61.254 140.43,124.95 10.75,-67.305 97.51,-129.079 208.37,-130.141 111.07,-1.047 214,36.699 238.45,133.501 46.86,188.53 -305.99,211.07 -300.61,324.07 2.32,48.68 31.07,68.93 77.18,77.27 87.19,15.82 166.44,19.02 229.18,30.66 62.21,11.52 112.87,27.89 153.65,48.46 L 2639.52,889.809 h 90.68 l 48.91,204.821 c 27.51,114.16 126.39,302.66 237.44,302.66 60.11,0 91.73,-54 75.41,-126.34 l -43.81,-191.61 c -18.35,-81.496 -30.58,-192.578 48.9,-192.578 77.92,0 133.83,104.601 167.06,182.578 -10.2,-118.836 40.44,-186.66 126.4,-186.66 134.51,0 238.45,166.09 280.22,281.25 l -22.41,-84.59 c -21.38,-81.496 -30.58,-192.578 48.92,-192.578 3.42,0 6.66,0.879 10,1.277 l 115.34,542.891" /><path
         id="path36"
         style="fill:#ffffff;fill-opacity:1;fill-rule:nonzero;stroke:none"
         d="m 7462.16,904.551 c -90.71,0 -140.63,54 -140.63,162.019 0,163.04 88.64,349.54 242.52,349.54 97.83,0 157.94,-61.15 157.94,-178.33 0,-171.21 -108.01,-333.229 -259.83,-333.229 m -663.91,32.609 c -51.97,0 -92.73,56.031 -77.44,184.44 20.39,174.27 132.46,300.61 270.03,300.61 27.52,0 85.61,-5.1 85.61,-54 0,-136.56 -143.67,-431.05 -278.2,-431.05 m -1554.41,0 c -56.06,0 -96.81,56.031 -74.38,193.6 28.51,168.14 124.3,291.45 261.87,291.45 27.52,0 85.61,-5.1 85.61,-54 0,-136.56 -143.7,-431.05 -273.1,-431.05 m 1244.83,490.15 c 70.32,0 103.96,-49.94 83.57,-109.03 -21.41,-61.15 -89.66,-99.88 -165.08,-99.88 -48.92,0 -98.86,16.31 -129.43,40.76 44.84,91.74 123.3,168.15 210.94,168.15 m 1079.47,8.15 c -164.07,0 -338.34,-137.57 -338.34,-334.24 0,-5.59 0.44,-10.87 0.75,-16.23 -22.02,-47.91 -69.13,-134.599 -106.21,-134.599 -39.74,0 -20.38,96.829 -9.16,150.829 l 103.32,494.28 -106.53,0.07 4.07,-24.53 c -0.46,-20.38 -26.34,-162.08 -26.34,-162.08 -10.19,8.15 -47.9,29.56 -114.15,29.56 -173.21,0 -326.09,-148.78 -349.51,-339.34 -0.1,-0.83 -0.13,-1.62 -0.23,-2.45 -64.16,-120.39 -156.05,-171.82 -234.97,-171.82 -104.95,0 -168.13,88.67 -149.79,216.05 5.1,35.66 16.3,72.34 31.59,107.01 37.7,-29.57 101.92,-52 176.3,-52 114.11,0 195.66,53.01 207.88,118.22 14.26,71.34 -58.09,128.41 -169.14,128.41 -171.21,0 -310.83,-136.57 -336.29,-298.59 -3.24,-20.42 -4.31,-39.94 -3.7,-58.6 -63.74,-111.922 -151.95,-160.5 -228.22,-160.5 -104.95,0 -165.1,88.67 -149.82,218.07 17.35,146.76 125.34,284.33 242.55,284.33 79.07,0 71.1,-137.11 73.05,-150.31 27.02,13.05 53.55,27.12 79.94,41.46 -11.49,80.93 -56.43,124.14 -159.12,124.14 -159.98,0 -301.64,-128.41 -327.09,-296.55 -2.5,-16.68 -3.52,-32.72 -3.54,-48.24 l -0.56,0.35 c -18.34,-42.8 -71.31,-147.769 -112.08,-147.769 -39.74,0 -21.41,96.829 -9.19,150.829 l 74.41,333.21 c -12.23,-5.1 -64.22,-5.1 -64.22,-5.1 -61.13,0 -93.73,9.19 -138.57,9.19 -182.42,0 -319.99,-149.8 -351.56,-332.21 -1.22,-7.16 -2.08,-14.06 -2.89,-20.9 -21.97,-47.83 -69.25,-135.019 -106.43,-135.019 -39.74,0 -21.39,96.829 -9.16,150.829 l 41.78,179.36 c 20.39,87.63 -22.42,162.02 -129.41,162.02 -131.47,0 -212.98,-110.06 -261.91,-226.24 l 14.29,64.22 c 19.35,87.63 -22.42,162.02 -129.44,162.02 -130.43,0 -210.93,-120.26 -257.81,-240.5 l 34.38,146.27 21.06,84.04 -102.99,-0.39 3.21,-21.43 c -1.33,-19.46 -4.51,-32.82 -8.88,-51.82 l -9.92,-43.22 -98.89,-422.21 h 90.71 l 48.91,204.82 c 27.51,114.14 121.27,302.66 233.36,302.66 62.15,0 95.79,-54.01 79.47,-126.37 l -87.63,-381.11 h 94.76 l 45.87,199.72 c 29.54,128.4 131.47,307.76 244.57,307.76 62.17,0 95.78,-54.01 79.48,-126.37 l -43.83,-191.58 c -18.32,-81.52 -30.55,-192.6 48.93,-192.6 75.32,0 130.09,97.8 163.7,174.75 -7.34,-113.95 42.93,-178.821 126.97,-178.821 134.51,0 238.47,166.111 280.24,281.261 l -22.42,-84.59 c -21.39,-81.52 -30.58,-192.6 48.92,-192.6 81.01,0 140.46,115.84 173.09,194.58 5.15,-116.588 80.64,-194.58 196.82,-194.58 84.94,0 199.95,41.3 275.94,180.71 9.35,-108.371 83.56,-180.71 195.46,-180.71 86.55,0 204.29,43.039 280.2,188.93 -8.88,-120.489 42.15,-193.001 127.2,-193.001 138.6,0 242.53,166.121 284.32,281.261 l -22.44,-84.59 c -21.39,-81.52 -30.55,-192.6 48.93,-192.6 77.41,0 135.56,103.242 169.34,181.04 13.71,-125.369 113.7,-186.138 223.49,-186.138 162.02,0 359.7,125.348 359.7,327.128 0,149.78 -127.36,223.16 -246.58,223.16" /></g></g></svg>